<svg width="1134" height="1134" xmlns="http://www.w3.org/2000/svg" xmlns:xlink="http://www.w3.org/1999/xlink" overflow="hidden"><defs><clipPath id="clip0"><rect x="0" y="0" width="1134" height="1134"/></clipPath></defs><g clip-path="url(#clip0)"><rect x="0" y="0" width="1134" height="1134" fill="#FFFFFF"/><path d="M291.309 840.076C292.544 841.872 294.265 843.335 296.438 844.325L300.324 845.811C334.168 859.963 375.172 849.437 401.67 820.323L639.484 554.112 577.653 504.185 548.358 536.786 298.274 816.071 293.239 822.123C288.322 827.823 287.907 835.126 291.309 840.076Z" fill="#D9E0E5" fill-rule="evenodd"/><path d="M285.876 836.462C287.111 838.258 288.832 839.721 291.005 840.711L294.892 842.197C307.893 836.879 319.385 828.495 328.352 818.176L566.207 551.937 542.672 532.805 293.247 812.178 287.807 818.508C282.864 824.173 282.474 831.512 285.876 836.462Z" fill="#EDEDED" fill-rule="evenodd"/><path d="M224.962 752.379C228.439 757.439 235.323 759.725 242.099 757.336L249.918 754.554 640.819 605.819 630.956 574.701 616.804 529.958 283.037 656.543C251.907 668.057 229.189 695.114 223.572 725.425 222.577 732.317 222.013 738.966 222.632 745.775 222.853 748.268 223.677 750.509 224.962 752.379Z" fill="#EAEEF1" fill-rule="evenodd"/><path d="M226.296 725.53C229.566 726.9 233.24 726.426 236.461 725.293L244.321 722.483 633.429 574.44 619.277 529.696 285.509 656.281C254.631 668.162 231.661 694.852 226.296 725.53Z" fill="#D9E0E5" fill-rule="evenodd"/><path d="M592.97 404.72C592.315 403.767 591.65 402.712 591.051 401.666 573.19 372.374 584.691 332.297 617.083 312.628 650.834 291.809 688.255 302.045 705.54 327.199 714.687 340.509 718.227 357.996 712.62 377.288 696.389 432.114 622.703 447.986 592.97 404.72ZM496.729 629.62C498.619 632.37 500.964 634.915 503.69 637.144 521.033 650.653 547.567 647.479 563.881 629.52L738.152 434.508C773.923 392.219 777.535 335.97 750.246 296.26 744.653 288.12 737.767 280.706 729.634 274.257 680.99 236.051 606.377 245.273 561.286 294.938L561.286 294.938 561.692 294.659C522.704 338.349 519.983 395.982 547.348 435.802 558.662 452.265 575.174 465.696 596.381 473.795L501.644 579.872C488.273 594.729 486.851 615.247 496.729 629.62Z" fill="#7F7F7F" fill-rule="evenodd"/><path d="M739.894 621.703C736.87 617.303 734.42 612.347 732.624 606.78 721.738 574.26 741.418 536.875 776.668 523.016 808.285 511.167 837.547 522.475 852.288 543.925 863.955 560.902 866.563 584.157 854.131 607.33 829.29 654.145 765.394 658.81 739.894 621.703ZM494.354 630.22C504.232 644.593 523.871 650.585 542.534 643.428L675.911 592.796C675.741 616.612 682.344 636.906 693.507 653.149 734.276 712.476 835.831 718.046 890.994 644.293 921.349 603.243 923.934 550.885 897.477 512.385 896.721 511.286 895.924 510.213 895.102 509.105 866.018 470.952 813.273 456.834 763.406 474.53L518.494 567.53C496.246 576.071 484.023 600.072 490.165 620.737L489.8 620.988C490.889 624.396 492.439 627.433 494.354 630.22Z" fill="#595959" fill-rule="evenodd"/><path d="M524.399 612.588C528.759 618.931 537.999 619.869 544.609 615.326 551.259 610.756 553.697 601.794 549.338 595.45 545.231 589.474 535.99 588.537 529.34 593.107 522.73 597.649 520.292 606.612 524.399 612.588Z" fill="#F2F2F2" fill-rule="evenodd"/></g></svg>